<svg width="330" height="65" viewBox="0 0 330 65" fill="none" xmlns="http://www.w3.org/2000/svg">
<g id="Group 84">
<g id="logoAJ 1" clip-path="url(#clip0)">
<path id="A" fill-rule="evenodd" clip-rule="evenodd" d="M17.248 0C16.9444 0 16.636 0.23804 16.5591 0.531677L0.0175095 63.6742C-0.0594151 63.9679 0.124299 64.2059 0.427845 64.2059H12.6031C12.9067 64.2059 13.2151 63.9679 13.292 63.6742L23.3744 25.1881L30.0727 50.7411C30.1497 51.0348 30.458 51.2728 30.7616 51.2728H43.1011C43.4052 51.2728 43.5889 51.0337 43.5109 50.7393L30.1867 0.529927C30.109 0.236973 29.801 0 29.4982 0H29.4233H17.3213H17.248Z" fill="white"/>
<path id="J" d="M44.5548 51.2728H32.2481C31.889 51.2728 31.6263 50.9342 31.7157 50.5865L33.8826 42.1466L34.516 39.6802C34.6052 39.3323 34.3425 38.9938 33.9836 38.9938H31.5394H24.9022H22.0079C21.7579 38.9938 21.5395 39.1625 21.4763 39.4045L20.8026 41.9806L15.7271 61.3946L15.1263 63.6927C15.0353 64.041 15.2981 64.3814 15.6581 64.3814H17.4353H51.783H54.512C54.7617 64.3814 54.9799 64.213 55.0435 63.9715L55.8082 61.0628L70.9883 3.31863L71.6795 0.689357C71.7711 0.340884 71.5082 0 71.1479 0H68.7081H35.6878H33.4092C33.0503 0 32.7878 0.338444 32.8768 0.686129L33.4242 2.82082L35.9137 12.5295C35.9759 12.7726 36.1951 12.9426 36.446 12.9426H54.2251C54.5847 12.9426 54.8475 13.2823 54.7571 13.6304L45.0868 50.8613C45.0238 51.1037 44.805 51.2728 44.5548 51.2728Z" fill="url(#paint0_linear)"/>
</g>
<g id="Andr&#195;&#169; Junior">
<path d="M104.68 42C104.3 40.98 103.94 40 103.6 39.06C103.26 38.12 102.93 37.2 102.61 36.3H92.5C92.16 37.2 91.82 38.12 91.48 39.06C91.14 40 90.79 40.98 90.43 42H88.3C89.1 39.84 89.85 37.83 90.55 35.97C91.25 34.09 91.93 32.32 92.59 30.66C93.27 28.98 93.94 27.37 94.6 25.83C95.26 24.29 95.96 22.75 96.7 21.21H98.5C99.24 22.75 99.94 24.29 100.6 25.83C101.26 27.37 101.92 28.98 102.58 30.66C103.26 32.32 103.95 34.09 104.65 35.97C105.35 37.83 106.11 39.84 106.93 42H104.68ZM97.54 23.55C96.78 25.27 96.04 27.02 95.32 28.8C94.62 30.58 93.89 32.5 93.13 34.56H101.98C101.22 32.5 100.48 30.58 99.76 28.8C99.04 27.02 98.3 25.27 97.54 23.55ZM115.799 27.03C116.379 26.87 117.159 26.69 118.139 26.49C119.119 26.29 120.319 26.19 121.739 26.19C122.919 26.19 123.899 26.36 124.679 26.7C125.479 27.04 126.109 27.53 126.569 28.17C127.049 28.79 127.389 29.54 127.589 30.42C127.789 31.3 127.889 32.27 127.889 33.33V42H125.939V33.96C125.939 32.86 125.859 31.93 125.699 31.17C125.559 30.41 125.309 29.79 124.949 29.31C124.609 28.83 124.149 28.49 123.569 28.29C123.009 28.07 122.299 27.96 121.439 27.96C120.519 27.96 119.719 28.01 119.039 28.11C118.379 28.21 117.949 28.3 117.749 28.38V42H115.799V27.03ZM151.209 41.52C150.629 41.72 149.889 41.91 148.989 42.09C148.089 42.27 146.949 42.36 145.569 42.36C144.429 42.36 143.389 42.18 142.449 41.82C141.529 41.44 140.729 40.9 140.049 40.2C139.389 39.5 138.869 38.65 138.489 37.65C138.129 36.65 137.949 35.52 137.949 34.26C137.949 33.08 138.099 32 138.399 31.02C138.719 30.02 139.179 29.16 139.779 28.44C140.379 27.72 141.109 27.16 141.969 26.76C142.849 26.36 143.849 26.16 144.969 26.16C145.989 26.16 146.869 26.31 147.609 26.61C148.369 26.89 148.919 27.16 149.259 27.42V19.08L151.209 18.72V41.52ZM149.259 29.31C149.079 29.17 148.849 29.02 148.569 28.86C148.309 28.7 147.999 28.55 147.639 28.41C147.279 28.27 146.889 28.16 146.469 28.08C146.049 27.98 145.609 27.93 145.149 27.93C144.189 27.93 143.379 28.1 142.719 28.44C142.079 28.78 141.559 29.24 141.159 29.82C140.759 30.38 140.469 31.05 140.289 31.83C140.109 32.59 140.019 33.4 140.019 34.26C140.019 36.3 140.529 37.87 141.549 38.97C142.569 40.05 143.919 40.59 145.599 40.59C146.559 40.59 147.329 40.55 147.909 40.47C148.509 40.37 148.959 40.27 149.259 40.17V29.31ZM167.649 26.19C168.289 26.19 168.889 26.24 169.449 26.34C170.029 26.44 170.429 26.54 170.649 26.64L170.259 28.32C170.099 28.24 169.769 28.16 169.269 28.08C168.789 27.98 168.149 27.93 167.349 27.93C166.509 27.93 165.829 27.99 165.309 28.11C164.809 28.23 164.479 28.33 164.319 28.41V42H162.369V27.21C162.869 26.99 163.559 26.77 164.439 26.55C165.319 26.31 166.389 26.19 167.649 26.19ZM178.66 34.23C178.66 32.87 178.85 31.69 179.23 30.69C179.63 29.67 180.14 28.82 180.76 28.14C181.4 27.46 182.12 26.96 182.92 26.64C183.74 26.3 184.58 26.13 185.44 26.13C187.34 26.13 188.85 26.75 189.97 27.99C191.11 29.23 191.68 31.14 191.68 33.72C191.68 33.88 191.67 34.04 191.65 34.2C191.65 34.36 191.64 34.51 191.62 34.65H180.73C180.79 36.55 181.26 38.01 182.14 39.03C183.02 40.05 184.42 40.56 186.34 40.56C187.4 40.56 188.24 40.46 188.86 40.26C189.48 40.06 189.93 39.89 190.21 39.75L190.57 41.43C190.29 41.59 189.76 41.78 188.98 42C188.22 42.22 187.32 42.33 186.28 42.33C184.92 42.33 183.76 42.13 182.8 41.73C181.84 41.33 181.05 40.77 180.43 40.05C179.81 39.33 179.36 38.48 179.08 37.5C178.8 36.5 178.66 35.41 178.66 34.23ZM189.67 33C189.63 31.38 189.25 30.12 188.53 29.22C187.81 28.32 186.79 27.87 185.47 27.87C184.77 27.87 184.14 28.01 183.58 28.29C183.04 28.57 182.56 28.95 182.14 29.43C181.74 29.89 181.42 30.43 181.18 31.05C180.96 31.67 180.83 32.32 180.79 33H189.67ZM189.55 20.34L184.42 24.51L183.43 23.37L188.17 18.81L189.55 20.34Z" fill="#F5F5F5"/>
<path d="M223.419 20.6719H227.813V35.4375C227.813 36.7949 227.511 37.9961 226.905 39.041C226.31 40.0762 225.465 40.877 224.371 41.4434C223.277 42.0098 222.042 42.293 220.665 42.293C218.409 42.293 216.651 41.7217 215.392 40.5791C214.132 39.4268 213.502 37.8008 213.502 35.7012H217.926C217.926 36.7461 218.146 37.5176 218.585 38.0156C219.024 38.5137 219.718 38.7627 220.665 38.7627C221.505 38.7627 222.174 38.4746 222.672 37.8984C223.17 37.3223 223.419 36.502 223.419 35.4375V20.6719ZM246.792 40.3887C245.747 41.6582 244.302 42.293 242.456 42.293C240.757 42.293 239.458 41.8047 238.56 40.8281C237.671 39.8516 237.217 38.4209 237.197 36.5361V26.1504H241.431V36.3896C241.431 38.04 242.183 38.8652 243.687 38.8652C245.122 38.8652 246.108 38.3672 246.646 37.3711V26.1504H250.894V42H246.909L246.792 40.3887ZM263.983 26.1504L264.115 27.9814C265.248 26.5654 266.767 25.8574 268.671 25.8574C270.351 25.8574 271.601 26.3506 272.421 27.3369C273.241 28.3232 273.661 29.7979 273.681 31.7607V42H269.447V31.8633C269.447 30.9648 269.252 30.3154 268.861 29.915C268.471 29.5049 267.821 29.2998 266.913 29.2998C265.722 29.2998 264.828 29.8076 264.232 30.8232V42H259.999V26.1504H263.983ZM287.371 42H283.123V26.1504H287.371V42ZM282.874 22.0488C282.874 21.4141 283.084 20.8916 283.504 20.4814C283.934 20.0713 284.515 19.8662 285.247 19.8662C285.97 19.8662 286.546 20.0713 286.976 20.4814C287.405 20.8916 287.62 21.4141 287.62 22.0488C287.62 22.6934 287.4 23.2207 286.961 23.6309C286.531 24.041 285.96 24.2461 285.247 24.2461C284.534 24.2461 283.958 24.041 283.519 23.6309C283.089 23.2207 282.874 22.6934 282.874 22.0488ZM296.213 33.9287C296.213 32.3564 296.516 30.9551 297.121 29.7246C297.727 28.4941 298.596 27.542 299.729 26.8682C300.871 26.1943 302.194 25.8574 303.698 25.8574C305.837 25.8574 307.58 26.5117 308.928 27.8203C310.285 29.1289 311.042 30.9062 311.198 33.1523L311.228 34.2363C311.228 36.668 310.549 38.6211 309.191 40.0957C307.834 41.5605 306.013 42.293 303.728 42.293C301.442 42.293 299.616 41.5605 298.249 40.0957C296.892 38.6309 296.213 36.6387 296.213 34.1191V33.9287ZM300.446 34.2363C300.446 35.7402 300.729 36.8926 301.296 37.6934C301.862 38.4844 302.673 38.8799 303.728 38.8799C304.753 38.8799 305.554 38.4893 306.13 37.708C306.706 36.917 306.994 35.6572 306.994 33.9287C306.994 32.4541 306.706 31.3115 306.13 30.501C305.554 29.6904 304.743 29.2852 303.698 29.2852C302.663 29.2852 301.862 29.6904 301.296 30.501C300.729 31.3018 300.446 32.5469 300.446 34.2363ZM328.741 30.1201C328.165 30.042 327.657 30.0029 327.218 30.0029C325.616 30.0029 324.566 30.5449 324.068 31.6289V42H319.835V26.1504H323.834L323.951 28.04C324.801 26.585 325.978 25.8574 327.481 25.8574C327.95 25.8574 328.39 25.9209 328.8 26.0479L328.741 30.1201Z" fill="#64FA9B"/>
</g>
</g>
<defs>
<linearGradient id="paint0_linear" x1="61.9007" y1="4.8286" x2="24.4035" y2="51.9728" gradientUnits="userSpaceOnUse">
<stop stop-color="#64FA9B"/>
<stop offset="1" stop-color="#5FE36A"/>
</linearGradient>
<clipPath id="clip0">
<rect width="72" height="64.4885" fill="white"/>
</clipPath>
</defs>
</svg>
